#!OML:ASF H:\MichaelJackson\Top Level 1\Subject 1\Session 1\male.ASF
:FULLY-SPECIFIED
:DEGREES
288
root 17.4746 16.8063 -18.7372 12.6146 -2.02203 -0.64903
lowerback -1.81838 3.99324 6.05379
upperback -1.71742 5.25792 -2.22946
thorax -0.00482319 2.59101 -5.56757
lowerneck -7.08796 -3.34956 7.80438
upperneck -0.539948 -5.05154 -1.9048
head 0.786201 -2.55832 -2.07286
rclavicle -2.31025e-014 6.4605e-016
rhumerus -45.5591 23.9332 -109.159
rradius 120.496
rwrist -12.5384
rhand -1.50465 -16.1354
rfingers 7.12502
rthumb 24.1484 -44.6354
lclavicle -2.31025e-014 6.4605e-016
lhumerus -39.8903 -20.5343 88.9945
lradius 46.8919
lwrist 10.8779
lhand -7.34407 7.17965
lfingers 7.12502
lthumb 18.5399 36.3161
rfemur -21.4159 0.240684 23.5089
rtibia 32.6419
rfoot -27.1673 -21.3257
rtoes 16.5934
lfemur -34.7546 16.0415 -18.7086
ltibia 50.323
lfoot -15.6197 3.71301
ltoes 11.3201
289
root 17.4708 16.8068 -18.7237 12.645 -2.01454 -0.738183
lowerback -1.69352 4.0319 6.05203
upperback -1.72463 5.31695 -2.17758
thorax -0.078837 2.61787 -5.51996
lowerneck -7.07926 -3.33453 7.79503
upperneck -0.798046 -5.02716 -1.95214
head 0.702675 -2.55276 -2.08081
rclavicle 5.3237e-015 1.01132e-014
rhumerus -45.7296 23.9171 -109.064
rradius 119.77
rwrist -11.4276
rhand -2.4092 -16.4899
rfingers 7.12502
rthumb 23.2809 -45.1024
lclavicle 5.3237e-015 1.01132e-014
lhumerus -39.9082 -20.2836 88.8933
lradius 46.8245
lwrist 10.8536
lhand -7.51265 6.98788
lfingers 7.12502
lthumb 18.3777 36.1398
rfemur -21.3687 0.0440111 23.6381
rtibia 32.5645
rfoot -27.1071 -21.1538
rtoes 16.4815
lfemur -35.3601 16.2906 -18.7558
ltibia 50.9168
lfoot -15.3589 3.34215
ltoes 12.1517
290
root 17.468 16.8079 -18.7093 12.6751 -2.01824 -0.812602
lowerback -1.56948 4.07411 6.03236
upperback -1.73142 5.38093 -2.1329
thorax -0.152279 2.64738 -5.46981
lowerneck -7.07943 -3.31796 7.79102
upperneck -1.0531 -5.00218 -1.99653
head 0.621749 -2.54667 -2.0892
rclavicle 2.25745e-014 4.32357e-015
rhumerus -45.8825 23.9075 -108.958
rradius 119.049
rwrist -10.3217
rhand -3.27761 -16.8719
rfingers 7.12502
rthumb 22.4475 -45.5874
lclavicle 2.25745e-014 4.32357e-015
lhumerus -39.9409 -20.0433 88.8018
lradius 46.7442
lwrist 10.8629
lhand -7.63825 6.82821
lfingers 7.12502
lthumb 18.2569 35.9914
rfemur -21.3144 -0.131629 23.7434
rtibia 32.4794
rfoot -27.0487 -20.9911
rtoes 16.373
lfemur -35.9212 16.4909 -18.812
ltibia 51.3707
lfoot -15.1666 2.92163
ltoes 12.6543
291
root 17.4659 16.8097 -18.6936 12.6971 -2.0278 -0.871342
lowerback -1.4452 4.11574 6.0018
upperback -1.73298 5.44413 -2.10092
thorax -0.220427 2.67691 -5.42687
lowerneck -7.08259 -3.29883 7.79466
upperneck -1.31291 -4.97488 -2.0333
head 0.54004 -2.53932 -2.09654
rclavicle 3.26069e-014 2.05991e-014
rhumerus -46.0056 23.8969 -108.847
rradius 118.333
rwrist -9.2954
rhand -4.09073 -17.2911
rfingers 7.12502
rthumb 21.6668 -46.0987
lclavicle 3.26069e-014 2.05991e-014
lhumerus -39.9856 -19.8181 88.7064
lradius 46.6516
lwrist 10.9045
lhand -7.72467 6.70042
lfingers 7.12502
lthumb 18.1737 35.8714
rfemur -21.2409 -0.270977 23.8258
rtibia 32.3854
rfoot -26.9925 -20.8598
rtoes 16.2799
lfemur -36.4247 16.6382 -18.8692
ltibia 51.6807
lfoot -15.035 2.44494
ltoes 12.8774
292
root 17.4647 16.8119 -18.6765 12.7132 -2.04894 -0.916246
lowerback -1.32628 4.16088 5.96508
upperback -1.72884 5.51158 -2.08457
thorax -0.27826 2.70915 -5.39611
lowerneck -7.09051 -3.28012 7.81165
upperneck -1.57387 -4.94975 -2.06309
head 0.458605 -2.53294 -2.10427
rclavicle 6.89224e-014 1.54058e-015
rhumerus -46.0896 23.8708 -108.725
rradius 117.624
rwrist -8.41721
rhand -4.74325 -17.7411
rfingers 7.12502
rthumb 21.0401 -46.6197
lclavicle 6.89224e-014 1.54058e-015
lhumerus -40.0386 -19.6194 88.6071
lradius 46.5428
lwrist 10.9828
lhand -7.78622 6.58944
lfingers 7.12502
lthumb 18.1145 35.7659
rfemur -21.1508 -0.385467 23.8871
rtibia 32.2804
rfoot -26.9382 -20.7439
rtoes 16.2086
lfemur -36.8735 16.7443 -18.931
ltibia 51.8496
lfoot -14.955 1.94983
ltoes 12.6802
293
root 17.4641 16.8151 -18.658 12.7215 -2.08348 -0.947248
lowerback -1.21091 4.21104 5.9178
upperback -1.72084 5.58542 -2.08303
thorax -0.328862 2.74503 -5.37438
lowerneck -7.10354 -3.26304 7.84339
upperneck -1.82651 -4.92851 -2.08781
head 0.380314 -2.5283 -2.11347
rclavicle -2.93456e-014 -1.35671e-014
rhumerus -46.1311 23.8224 -108.59
rradius 116.913
rwrist -7.73968
rhand -5.25951 -18.1956
rfingers 7.12502
rthumb 20.5441 -47.1286
lclavicle -2.93456e-014 -1.35671e-014
lhumerus -40.1099 -19.4595 88.5146
lradius 46.432
lwrist 11.0862
lhand -7.83568 6.57352
lfingers 7.12502
lthumb 18.0669 35.7544
rfemur -21.0407 -0.471823 23.9271
rtibia 32.1623
rfoot -26.8818 -20.6457
rtoes 16.1624
lfemur -37.2665 16.8073 -18.993
ltibia 51.8861
lfoot -14.9004 1.44944
ltoes 12.2457
294
root 17.4643 16.8189 -18.6382 12.7298 -2.12701 -0.972756
lowerback -1.10832 4.26195 5.8886
upperback -1.70999 5.65925 -2.10632
thorax -0.365325 2.78134 -5.38751
lowerneck -7.11636 -3.24343 7.89481
upperneck -2.0762 -4.90545 -2.09544
head 0.30299 -2.52256 -2.12074
rclavicle -5.60604e-014 1.799e-014
rhumerus -46.1169 23.7468 -108.452
rradius 116.198
rwrist -7.30355
rhand -5.60161 -18.6545
rfingers 7.12502
rthumb 20.2153 -47.6226
lclavicle -5.60604e-014 1.799e-014
lhumerus -40.1904 -19.3335 88.3995
lradius 46.311
lwrist 11.2085
lhand -7.84761 6.58847
lfingers 7.12502
lthumb 18.0555 35.7704
rfemur -20.9194 -0.541287 23.9564
rtibia 32.0301
rfoot -26.8173 -20.5587
rtoes 16.1278
lfemur -37.6172 16.8289 -19.0503
ltibia 51.8028
lfoot -14.8386 0.972305
ltoes 11.6596
295
root 17.4653 16.8234 -18.6171 12.7341 -2.17701 -0.993084
lowerback -1.01147 4.31305 5.85119
upperback -1.69887 5.73294 -2.13434
thorax -0.398612 2.81777 -5.40067
lowerneck -7.13076 -3.2247 7.94791
upperneck -2.31022 -4.88392 -2.09822
head 0.230928 -2.51726 -2.12718
rclavicle 2.47611e-014 -1.37658e-014
rhumerus -46.0678 23.6599 -108.3
rradius 115.474
rwrist -7.05391
rhand -5.81613 -19.1137
rfingers 7.12502
rthumb 20.0091 -48.1034
lclavicle 2.47611e-014 -1.37658e-014
lhumerus -40.2833 -19.2158 88.2853
lradius 46.1712
lwrist 11.3166
lhand -7.79625 6.59019
lfingers 7.12502
lthumb 18.1049 35.7676
rfemur -20.7817 -0.588348 23.9751
rtibia 31.8824
rfoot -26.7436 -20.488
rtoes 16.1135
lfemur -37.9266 16.8097 -19.1025
ltibia 51.6144
lfoot -14.7463 0.533292
ltoes 11.0155
296
root 17.467 16.8282 -18.5947 12.738 -2.22971 -1.0129
lowerback -0.921088 4.36283 5.81249
upperback -1.69081 5.80444 -2.16598
thorax -0.43151 2.85305 -5.41675
lowerneck -7.14461 -3.20595 8.00139
upperneck -2.5259 -4.86243 -2.09649
head 0.164696 -2.51158 -2.13261
rclavicle -2.31708e-014 1.0138e-014
rhumerus -45.998 23.5784 -108.151
rradius 114.725
rwrist -6.88385
rhand -5.99957 -19.5473
rfingers 7.12502
rthumb 19.8328 -48.5554
lclavicle -2.31708e-014 1.0138e-014
lhumerus -40.3895 -19.1008 88.1699
lradius 46.0134
lwrist 11.3944
lhand -7.67407 6.58465
lfingers 7.12502
lthumb 18.2224 35.7511
rfemur -20.6317 -0.622944 23.9885
rtibia 31.7198
rfoot -26.6613 -20.4256
rtoes 16.1135
lfemur -38.2036 16.7488 -19.1464
ltibia 51.3363
lfoot -14.6007 0.148386
ltoes 10.4289
297
root 17.4696 16.8334 -18.5711 12.746 -2.27525 -1.0345
lowerback -0.837141 4.40777 5.78072
upperback -1.68917 5.86913 -2.20228
thorax -0.467244 2.88461 -5.44168
lowerneck -7.15915 -3.18887 8.05406
upperneck -2.72193 -4.84321 -2.08783
head 0.104879 -2.5066 -2.13609
rclavicle 2.27422e-014 -1.09332e-014
rhumerus -45.9148 23.4952 -108.01
rradius 113.961
rwrist -6.73802
rhand -6.1402 -19.9667
rfingers 7.12502
rthumb 19.6976 -48.9887
lclavicle 2.27422e-014 -1.09332e-014
lhumerus -40.505 -18.985 88.0467
lradius 45.8351
lwrist 11.4259
lhand -7.4606 6.57019
lfingers 7.12502
lthumb 18.4278 35.7173
rfemur -20.4756 -0.646511 23.9997
rtibia 31.5462
rfoot -26.5723 -20.3772
rtoes 16.1214
lfemur -38.4571 16.6335 -19.1776
ltibia 50.9843
lfoot -14.3885 -0.162895
ltoes 10.0586
298
root 17.4733 16.8388 -18.5466 12.7615 -2.32852 -1.06219
lowerback -0.766469 4.45632 5.75656
upperback -1.6911 5.93786 -2.2411
thorax -0.497678 2.91823 -5.47251
lowerneck -7.17449 -3.1757 8.10547
upperneck -2.90274 -4.8292 -2.07591
head 0.0498452 -2.50391 -2.13868
rclavicle -2.21148e-015 2.0276e-014
rhumerus -45.8152 23.4179 -107.872
rradius 113.183
rwrist -6.57246
rhand -6.27224 -20.3798
rfingers 7.12502
rthumb 19.5706 -49.4148
lclavicle -2.21148e-015 2.0276e-014
lhumerus -40.6187 -18.871 87.9201
lradius 45.6388
lwrist 11.4001
lhand -7.15493 6.5978
lfingers 7.12502
lthumb 18.7218 35.7169
rfemur -20.322 -0.671716 24.0106
rtibia 31.3656
rfoot -26.4788 -20.3178
rtoes 16.1153
lfemur -38.6932 16.4804 -19.1977
ltibia 50.5734
lfoot -14.124 -0.381103
ltoes 9.91357
299
root 17.478 16.8437 -18.5211 12.7808 -2.37061 -1.09519
lowerback -0.708513 4.50324 5.73557
upperback -1.69433 6.0037 -2.27699
thorax -0.52269 2.95053 -5.50122
lowerneck -7.1896 -3.16815 8.14833
upperneck -3.07224 -4.82202 -2.06041
head -0.00173074 -2.50433 -2.13886
rclavicle 4.73977e-014 -7.45443e-015
rhumerus -45.7108 23.3472 -107.738
rradius 112.401
rwrist -6.33144
rhand -6.4359 -20.7757
rfingers 7.12502
rthumb 19.4133 -49.8266
lclavicle 4.73977e-014 -7.45443e-015
lhumerus -40.7267 -18.7564 87.7957
lradius 45.4256
lwrist 11.3039
lhand -6.74885 6.69802
lfingers 7.12502
lthumb 19.1124 35.779
rfemur -20.1661 -0.687989 24.0231
rtibia 31.1832
rfoot -26.3858 -20.275
rtoes 16.0941
lfemur -38.9104 16.2795 -19.204
ltibia 50.1181
lfoot -13.8319 -0.496229
ltoes 10.0091
